<?xml version="1.0" encoding="utf-8"?>
<!-- Generator: Adobe Illustrator 21.0.0, SVG Export Plug-In . SVG Version: 6.00 Build 0)  -->
<svg version="1.1" xmlns="http://www.w3.org/2000/svg" xmlns:xlink="http://www.w3.org/1999/xlink" x="0px" y="0px"
	 viewBox="0 0 190.8 60" style="enable-background:new 0 0 190.8 60;" xml:space="preserve">
<style type="text/css">
	.st0{fill:#235F95;}
	.st1{stroke:#106BB5;stroke-miterlimit:10;}
	.st2{fill:url(#SVGID_1_);}
	.st3{fill:url(#SVGID_2_);}
	.st4{fill:url(#SVGID_3_);}
	.st5{fill:url(#SVGID_4_);}
	.st6{filter:url(#Adobe_OpacityMaskFilter);}
	.st7{filter:url(#Adobe_OpacityMaskFilter_1_);}
	.st8{mask:url(#SVGID_5_);fill:url(#SVGID_6_);}
	.st9{fill:url(#SVGID_7_);}
	.st10{fill:url(#SVGID_8_);}
	.st11{fill:url(#SVGID_9_);}
	.st12{fill:url(#SVGID_10_);}
	.st13{fill:url(#SVGID_11_);}
	.st14{filter:url(#Adobe_OpacityMaskFilter_2_);}
	.st15{filter:url(#Adobe_OpacityMaskFilter_3_);}
	.st16{mask:url(#SVGID_12_);fill:url(#SVGID_13_);}
	.st17{fill:url(#SVGID_14_);}
</style>
<g id="Layer_1">
	<g>
		<path class="st0" d="M44.2,36.5v-8.6h1.5v8.6H44.2z M51.4,36.5l-4.9-3.8c-0.1-0.1-0.2-0.2-0.3-0.3c0-0.1-0.1-0.2-0.1-0.3
			c0-0.1,0-0.3,0.1-0.4c0-0.1,0.2-0.2,0.3-0.3l4.6-3.5h2.3l-5.7,4.2l5.9,4.4H51.4z"/>
		<path class="st0" d="M57.3,36.5c-0.6,0-1.2-0.1-1.7-0.3c-0.5-0.2-1-0.5-1.3-0.9c-0.4-0.4-0.7-0.9-0.9-1.4
			c-0.2-0.5-0.3-1.1-0.3-1.7c0-0.6,0.1-1.2,0.3-1.7c0.2-0.5,0.5-1,0.9-1.3c0.4-0.4,0.8-0.7,1.3-0.9c0.5-0.2,1.1-0.3,1.7-0.3h2.1
			c0.6,0,1.2,0.1,1.7,0.3c0.5,0.2,1,0.5,1.3,0.9c0.4,0.4,0.7,0.8,0.9,1.3c0.2,0.5,0.3,1.1,0.3,1.7c0,0.6-0.1,1.2-0.3,1.7
			c-0.2,0.5-0.5,1-0.9,1.4c-0.4,0.4-0.8,0.7-1.3,0.9c-0.5,0.2-1.1,0.3-1.7,0.3H57.3z M59.4,35c0.4,0,0.8-0.1,1.1-0.2
			c0.3-0.1,0.6-0.3,0.9-0.6c0.2-0.2,0.4-0.5,0.6-0.9c0.1-0.3,0.2-0.7,0.2-1.1c0-0.4-0.1-0.8-0.2-1.1c-0.1-0.3-0.3-0.6-0.6-0.9
			c-0.2-0.2-0.5-0.4-0.9-0.6c-0.3-0.1-0.7-0.2-1.1-0.2h-2.1c-0.4,0-0.8,0.1-1.1,0.2c-0.3,0.1-0.6,0.3-0.9,0.6
			c-0.2,0.2-0.4,0.5-0.6,0.9c-0.1,0.3-0.2,0.7-0.2,1.1c0,0.4,0.1,0.8,0.2,1.1c0.1,0.3,0.3,0.6,0.6,0.9c0.2,0.2,0.5,0.4,0.9,0.6
			c0.3,0.1,0.7,0.2,1.1,0.2H59.4z"/>
		<path class="st0" d="M64.9,36.5v-8.6h5c0.6,0,1.2,0.1,1.7,0.3c0.5,0.2,1,0.5,1.3,0.9c0.4,0.4,0.7,0.8,0.9,1.3
			c0.2,0.5,0.3,1.1,0.3,1.7c0,0.6-0.1,1.2-0.3,1.7c-0.2,0.5-0.5,1-0.9,1.4c-0.4,0.4-0.8,0.7-1.3,0.9c-0.5,0.2-1.1,0.3-1.7,0.3H64.9z
			 M69.9,35c0.4,0,0.8-0.1,1.1-0.2c0.3-0.1,0.6-0.3,0.9-0.6c0.2-0.2,0.4-0.5,0.6-0.9c0.1-0.3,0.2-0.7,0.2-1.1c0-0.4-0.1-0.8-0.2-1.1
			c-0.1-0.3-0.3-0.6-0.6-0.9c-0.2-0.2-0.5-0.4-0.9-0.6c-0.3-0.1-0.7-0.2-1.1-0.2h-3.5V35H69.9z"/>
		<path class="st0" d="M75.4,36.5v-8.6h7.8v1.5h-6.2V35h6.3v1.5H75.4z M78,32.7v-1.3h4.8v1.3H78z"/>
		<path class="st0" d="M88.4,36.5c-0.6,0-1.2-0.1-1.7-0.3c-0.5-0.2-1-0.5-1.3-0.9c-0.4-0.4-0.7-0.9-0.9-1.4
			c-0.2-0.5-0.3-1.1-0.3-1.7c0-0.6,0.1-1.2,0.3-1.7c0.2-0.5,0.5-1,0.9-1.3c0.4-0.4,0.8-0.7,1.3-0.9c0.5-0.2,1.1-0.3,1.7-0.3h2.1
			c0.6,0,1.2,0.1,1.7,0.3c0.5,0.2,1,0.5,1.3,0.9c0.4,0.4,0.7,0.8,0.9,1.3c0.2,0.5,0.3,1.1,0.3,1.7c0,0.6-0.1,1.2-0.3,1.7
			c-0.2,0.5-0.5,1-0.9,1.4c-0.4,0.4-0.8,0.7-1.3,0.9c-0.5,0.2-1.1,0.3-1.7,0.3H88.4z M90.5,35c0.4,0,0.8-0.1,1.1-0.2
			c0.3-0.1,0.6-0.3,0.9-0.6c0.2-0.2,0.4-0.5,0.6-0.9c0.1-0.3,0.2-0.7,0.2-1.1c0-0.4-0.1-0.8-0.2-1.1c-0.1-0.3-0.3-0.6-0.6-0.9
			c-0.2-0.2-0.5-0.4-0.9-0.6c-0.3-0.1-0.7-0.2-1.1-0.2h-2.1c-0.4,0-0.8,0.1-1.1,0.2c-0.3,0.1-0.6,0.3-0.9,0.6
			c-0.2,0.2-0.4,0.5-0.6,0.9c-0.1,0.3-0.2,0.7-0.2,1.1c0,0.4,0.1,0.8,0.2,1.1c0.1,0.3,0.3,0.6,0.6,0.9c0.2,0.2,0.5,0.4,0.9,0.6
			c0.3,0.1,0.7,0.2,1.1,0.2H90.5z"/>
		<path class="st0" d="M97.4,30.2v6.3H96v-7.8c0-0.3,0.1-0.5,0.2-0.7c0.1-0.2,0.3-0.2,0.6-0.2c0.1,0,0.2,0,0.3,0.1
			c0.1,0,0.2,0.1,0.3,0.2l6.1,6v-6.3h1.4v7.9c0,0.3-0.1,0.5-0.2,0.7c-0.1,0.2-0.3,0.2-0.5,0.2c-0.2,0-0.5-0.1-0.7-0.3L97.4,30.2z"/>
		<path class="st0" d="M113.9,36.5c-0.6,0-1.2-0.1-1.7-0.3c-0.5-0.2-1-0.5-1.3-0.9c-0.4-0.4-0.7-0.9-0.9-1.4
			c-0.2-0.5-0.3-1.1-0.3-1.7c0-0.6,0.1-1.2,0.3-1.7s0.5-1,0.9-1.3c0.4-0.4,0.8-0.7,1.3-0.9c0.5-0.2,1.1-0.3,1.7-0.3h4.7v1.5h-4.7
			c-0.4,0-0.8,0.1-1.1,0.2c-0.3,0.1-0.6,0.3-0.9,0.6c-0.2,0.2-0.4,0.5-0.6,0.9c-0.1,0.3-0.2,0.7-0.2,1.1c0,0.4,0.1,0.8,0.2,1.1
			c0.1,0.3,0.3,0.6,0.6,0.9c0.2,0.2,0.5,0.4,0.9,0.6c0.3,0.1,0.7,0.2,1.1,0.2h4.7v1.5H113.9z"/>
		<path class="st0" d="M128.9,36.5l-1.3-2.2h-4.1l0.7-1.2h2.7l-1.9-3.2l-3.9,6.6h-1.7l5-8.2c0.1-0.2,0.2-0.3,0.3-0.4
			c0.1-0.1,0.3-0.1,0.4-0.1c0.2,0,0.3,0,0.4,0.1c0.1,0.1,0.2,0.2,0.3,0.4l5,8.2H128.9z"/>
		<path class="st0" d="M134.3,34.1v-1.5h3.5c0.5,0,1-0.1,1.2-0.4c0.3-0.3,0.4-0.7,0.4-1.2c0-0.5-0.1-0.9-0.4-1.2
			c-0.3-0.3-0.7-0.4-1.2-0.4h-4.6v7.1h-1.5v-8.6h6.1c0.5,0,1,0.1,1.3,0.2c0.4,0.1,0.7,0.4,1,0.6c0.3,0.3,0.5,0.6,0.6,1
			c0.1,0.4,0.2,0.8,0.2,1.3c0,0.5-0.1,0.9-0.2,1.3c-0.1,0.4-0.4,0.7-0.6,1c-0.3,0.3-0.6,0.5-1,0.6c-0.4,0.2-0.8,0.2-1.3,0.2H134.3z"
			/>
		<path class="st0" d="M142.1,36.5v-8.6h1.5v8.6H142.1z"/>
		<path class="st0" d="M148,36.5v-7.1h-3.3v-1.5h8.1v1.5h-3.3v7.1H148z"/>
		<path class="st0" d="M161.2,36.5l-1.3-2.2h-4.1l0.7-1.2h2.7l-1.9-3.2l-3.9,6.6h-1.7l5-8.2c0.1-0.2,0.2-0.3,0.3-0.4
			c0.1-0.1,0.3-0.1,0.4-0.1c0.2,0,0.3,0,0.4,0.1c0.1,0.1,0.2,0.2,0.3,0.4l5,8.2H161.2z"/>
		<path class="st0" d="M164,36.5v-8.6h1.5V35h5.8v1.5H164z"/>
	</g>
	<line class="st1" x1="175.2" y1="38.5" x2="17.8" y2="38.5"/>
</g>
<g id="Layer_2">
	<g>
		<g>
			<g>

					<radialGradient id="SVGID_1_" cx="597.6202" cy="-887.1367" r="143.4159" gradientTransform="matrix(0.1192 0 0 0.1119 -38.6192 128.6382)" gradientUnits="userSpaceOnUse">
					<stop  offset="0" style="stop-color:#06556C"/>
					<stop  offset="1" style="stop-color:#010101"/>
				</radialGradient>
				<path class="st2" d="M40.4,26.6c0,0,0.5-4.5-5.9-4.2c-5.6,0.3-6.2,5.9-3.8,6.9c0.7,0.4,2.2,0.4,3,0.2c-1.9-0.1-2.7-3.2-0.5-3.7
					c3.4-0.9,5,2.1,4.4,4.1c-0.5,1.7-2.5,6-10.4,5.7c5.8,0.6,9-0.1,12.7-5.6C40,28.9,40.4,26.6,40.4,26.6z"/>

					<radialGradient id="SVGID_2_" cx="574.7676" cy="-914.7867" r="76.6389" gradientTransform="matrix(0.1192 0 0 0.1119 -38.6192 128.6382)" gradientUnits="userSpaceOnUse">
					<stop  offset="0.5455" style="stop-color:#4AC6E6"/>
					<stop  offset="1" style="stop-color:#2F84C6"/>
				</radialGradient>
				<path class="st3" d="M30,18.5c0,0,3.8,0.1,5,1.8c1.1,1.4,1.3,3.4,0,5.8c2.3,2.3,3,1.7,3,1.7s2.7-2.5,0.6-5.5
					c-5.5-6.9-14.3-4-16.9,0.2c-2.3,3.1-2.2,8,1.9,10.6c5,3.2,10-0.4,10-0.4s-9.6-1-10.5-7.6C23.3,23.1,24,18.6,30,18.5z"/>

					<radialGradient id="SVGID_3_" cx="587.2401" cy="-865.7797" r="64.2859" gradientTransform="matrix(0.1192 0 0 0.1119 -38.6192 128.6382)" gradientUnits="userSpaceOnUse">
					<stop  offset="0.5455" style="stop-color:#4AC6E6"/>
					<stop  offset="1" style="stop-color:#2F84C6"/>
				</radialGradient>
				<path class="st4" d="M22.2,33.1c0,0,2.5,5.1,10.9,3.8c0,0,8.6-2.2,7.3-10.6c-0.5,4.3-3,8.2-8.4,9.1
					C25.8,36.3,23.1,34.4,22.2,33.1z"/>

					<radialGradient id="SVGID_4_" cx="544.5339" cy="-917.2805" r="174.9266" gradientTransform="matrix(0.1192 0 0 0.1119 -38.6192 128.6382)" gradientUnits="userSpaceOnUse">
					<stop  offset="0" style="stop-color:#06556C"/>
					<stop  offset="1" style="stop-color:#010101"/>
				</radialGradient>
				<path class="st5" d="M28.7,31.4c-1.1-0.4-2-2.1-2.5-3c-1.9-4.1,2.3-7.9,6.6-7.3c1,0.2,2.4,0.7,3.2,1.4c-0.3-1.2-0.5-3.6-4.4-4
					c-3.9-0.4-7.6,0.9-8.9,5C22.3,25.2,22,28.9,28.7,31.4z"/>
			</g>
		</g>
		<defs>
			<filter id="Adobe_OpacityMaskFilter" filterUnits="userSpaceOnUse" x="24.8" y="27.7" width="0" height="0">
				<feFlood  style="flood-color:white;flood-opacity:1" result="back"/>
				<feBlend  in="SourceGraphic" in2="back" mode="normal"/>
			</filter>
		</defs>
		<mask maskUnits="userSpaceOnUse" x="24.8" y="27.7" width="0" height="0" id="SVGID_5_">
			<g class="st6">
				<defs>
					<filter id="Adobe_OpacityMaskFilter_1_" filterUnits="userSpaceOnUse" x="24.8" y="27.7" width="0" height="0">
						<feFlood  style="flood-color:white;flood-opacity:1" result="back"/>
						<feBlend  in="SourceGraphic" in2="back" mode="normal"/>
					</filter>
				</defs>
				<mask maskUnits="userSpaceOnUse" x="24.8" y="27.7" width="0" height="0" id="SVGID_5_">
					<g class="st7">
					</g>
				</mask>
				<linearGradient id="SVGID_6_" gradientUnits="userSpaceOnUse" x1="24.7638" y1="27.6568" x2="24.7638" y2="27.6568">
					<stop  offset="0" style="stop-color:#FFFFFF"/>
					<stop  offset="6.285286e-02" style="stop-color:#DADADA"/>
					<stop  offset="0.1601" style="stop-color:#A7A7A7"/>
					<stop  offset="0.2621" style="stop-color:#7B7B7B"/>
					<stop  offset="0.3668" style="stop-color:#555555"/>
					<stop  offset="0.475" style="stop-color:#363636"/>
					<stop  offset="0.5878" style="stop-color:#1E1E1E"/>
					<stop  offset="0.7072" style="stop-color:#0D0D0D"/>
					<stop  offset="0.8376" style="stop-color:#030303"/>
					<stop  offset="1" style="stop-color:#000000"/>
				</linearGradient>
				<path class="st8" d="M24.8,27.7"/>
			</g>
		</mask>
		<linearGradient id="SVGID_7_" gradientUnits="userSpaceOnUse" x1="24.7638" y1="27.6568" x2="24.7638" y2="27.6568">
			<stop  offset="0" style="stop-color:#231F20"/>
			<stop  offset="8.962709e-02" style="stop-color:#231F20"/>
			<stop  offset="1" style="stop-color:#231F20"/>
		</linearGradient>
		<path class="st9" d="M24.8,27.7"/>
	</g>
</g>
<g id="Layer_3">
	<g>
		<g>
			<g>

					<radialGradient id="SVGID_8_" cx="597.6202" cy="-887.1367" r="143.4159" gradientTransform="matrix(0.1192 0 0 0.1119 -38.6192 128.6382)" gradientUnits="userSpaceOnUse">
					<stop  offset="0" style="stop-color:#06556C"/>
					<stop  offset="1" style="stop-color:#010101"/>
				</radialGradient>
				<path class="st10" d="M40.4,26.6c0,0,0.5-4.5-5.9-4.2c-5.6,0.3-6.2,5.9-3.8,6.9c0.7,0.4,2.2,0.4,3,0.2c-1.9-0.1-2.7-3.2-0.5-3.7
					c3.4-0.9,5,2.1,4.4,4.1c-0.5,1.7-2.5,6-10.4,5.7c5.8,0.6,9-0.1,12.7-5.6C40,28.9,40.4,26.6,40.4,26.6z"/>

					<radialGradient id="SVGID_9_" cx="574.7676" cy="-914.7867" r="76.6389" gradientTransform="matrix(0.1192 0 0 0.1119 -38.6192 128.6382)" gradientUnits="userSpaceOnUse">
					<stop  offset="0.5455" style="stop-color:#4AC6E6"/>
					<stop  offset="1" style="stop-color:#2F84C6"/>
				</radialGradient>
				<path class="st11" d="M30,18.5c0,0,3.8,0.1,5,1.8c1.1,1.4,1.3,3.4,0,5.8c2.3,2.3,3,1.7,3,1.7s2.7-2.5,0.6-5.5
					c-5.5-6.9-14.3-4-16.9,0.2c-2.3,3.1-2.2,8,1.9,10.6c5,3.2,10-0.4,10-0.4s-11-1.2-11.3-7.9C22.5,22.9,24,18.6,30,18.5z"/>

					<radialGradient id="SVGID_10_" cx="587.2401" cy="-865.7797" r="64.2859" gradientTransform="matrix(0.1192 0 0 0.1119 -38.6192 128.6382)" gradientUnits="userSpaceOnUse">
					<stop  offset="0.5455" style="stop-color:#4AC6E6"/>
					<stop  offset="1" style="stop-color:#2F84C6"/>
				</radialGradient>
				<path class="st12" d="M22.2,33.1c0,0,2.5,5.1,10.9,3.8c0,0,8.6-2.2,7.3-10.6c-0.5,4.3-3,8.2-8.4,9.1
					C25.8,36.3,23.1,34.4,22.2,33.1z"/>

					<radialGradient id="SVGID_11_" cx="544.5339" cy="-917.2805" r="174.9266" gradientTransform="matrix(0.1192 0 0 0.1119 -38.6192 128.6382)" gradientUnits="userSpaceOnUse">
					<stop  offset="0" style="stop-color:#06556C"/>
					<stop  offset="1" style="stop-color:#010101"/>
				</radialGradient>
				<path class="st13" d="M28.7,31.4c-1.1-0.4-2-2.1-2.5-3c-1.9-4.1,2.3-7.9,6.6-7.3c1,0.2,2.4,0.7,3.2,1.4c-0.3-1.2-0.5-3.6-4.4-4
					c-3.9-0.4-7.6,0.9-8.9,5C22.3,25.2,22,28.9,28.7,31.4z"/>
			</g>
		</g>
		<defs>
			<filter id="Adobe_OpacityMaskFilter_2_" filterUnits="userSpaceOnUse" x="24.8" y="27.7" width="0" height="0">
				<feFlood  style="flood-color:white;flood-opacity:1" result="back"/>
				<feBlend  in="SourceGraphic" in2="back" mode="normal"/>
			</filter>
		</defs>
		<mask maskUnits="userSpaceOnUse" x="24.8" y="27.7" width="0" height="0" id="SVGID_12_">
			<g class="st14">
				<defs>
					<filter id="Adobe_OpacityMaskFilter_3_" filterUnits="userSpaceOnUse" x="24.8" y="27.7" width="0" height="0">
						<feFlood  style="flood-color:white;flood-opacity:1" result="back"/>
						<feBlend  in="SourceGraphic" in2="back" mode="normal"/>
					</filter>
				</defs>
				<mask maskUnits="userSpaceOnUse" x="24.8" y="27.7" width="0" height="0" id="SVGID_12_">
					<g class="st15">
					</g>
				</mask>
				<linearGradient id="SVGID_13_" gradientUnits="userSpaceOnUse" x1="24.7638" y1="27.6568" x2="24.7638" y2="27.6568">
					<stop  offset="0" style="stop-color:#FFFFFF"/>
					<stop  offset="6.285286e-02" style="stop-color:#DADADA"/>
					<stop  offset="0.1601" style="stop-color:#A7A7A7"/>
					<stop  offset="0.2621" style="stop-color:#7B7B7B"/>
					<stop  offset="0.3668" style="stop-color:#555555"/>
					<stop  offset="0.475" style="stop-color:#363636"/>
					<stop  offset="0.5878" style="stop-color:#1E1E1E"/>
					<stop  offset="0.7072" style="stop-color:#0D0D0D"/>
					<stop  offset="0.8376" style="stop-color:#030303"/>
					<stop  offset="1" style="stop-color:#000000"/>
				</linearGradient>
				<path class="st16" d="M24.8,27.7"/>
			</g>
		</mask>
		<linearGradient id="SVGID_14_" gradientUnits="userSpaceOnUse" x1="24.7638" y1="27.6568" x2="24.7638" y2="27.6568">
			<stop  offset="0" style="stop-color:#231F20"/>
			<stop  offset="8.962709e-02" style="stop-color:#231F20"/>
			<stop  offset="1" style="stop-color:#231F20"/>
		</linearGradient>
		<path class="st17" d="M24.8,27.7"/>
	</g>
</g>
</svg>
